<mxfile host="app.diagrams.net" agent="Mozilla/5.0 (Windows NT 10.0; Win64; x64) AppleWebKit/537.36 (KHTML, like Gecko) Chrome/134.0.0.0 Safari/537.36 Edg/134.0.0.0" version="26.0.16">
  <diagram name="Page-1" id="W2G9gLz2J_e1DxM3Qyc2">
    <mxGraphModel dx="4607" dy="2616" grid="0" gridSize="10" guides="1" tooltips="1" connect="1" arrows="1" fold="1" page="1" pageScale="1" pageWidth="827" pageHeight="1169" math="0" shadow="0">
      <root>
        <mxCell id="0" />
        <mxCell id="1" parent="0" />
        <mxCell id="T9ikuVE41OPB9cJx2uWR-58" value="" style="rounded=0;whiteSpace=wrap;html=1;fillColor=#fad9d5;strokeColor=#ae4132;fontSize=15;" parent="1" vertex="1">
          <mxGeometry x="-1274" y="-495" width="889" height="984" as="geometry" />
        </mxCell>
        <mxCell id="T9ikuVE41OPB9cJx2uWR-65" value="" style="edgeStyle=none;curved=1;rounded=0;orthogonalLoop=1;jettySize=auto;html=1;fontSize=15;startSize=8;endSize=8;startArrow=none;startFill=0;" parent="1" source="T9ikuVE41OPB9cJx2uWR-59" target="T9ikuVE41OPB9cJx2uWR-60" edge="1">
          <mxGeometry relative="1" as="geometry" />
        </mxCell>
        <mxCell id="eNlCT5Ur5EYZ7H-Dd0QA-28" style="edgeStyle=orthogonalEdgeStyle;rounded=0;orthogonalLoop=1;jettySize=auto;html=1;dashed=1;fontSize=15;" edge="1" parent="1" source="T9ikuVE41OPB9cJx2uWR-59" target="T9ikuVE41OPB9cJx2uWR-70">
          <mxGeometry relative="1" as="geometry" />
        </mxCell>
        <mxCell id="T9ikuVE41OPB9cJx2uWR-59" value="View Menu" style="ellipse;whiteSpace=wrap;html=1;fontSize=15;" parent="1" vertex="1">
          <mxGeometry x="-1061" y="-465" width="120" height="80" as="geometry" />
        </mxCell>
        <mxCell id="T9ikuVE41OPB9cJx2uWR-60" value="Order Food" style="ellipse;whiteSpace=wrap;html=1;fontSize=15;" parent="1" vertex="1">
          <mxGeometry x="-1061" y="-289" width="120" height="80" as="geometry" />
        </mxCell>
        <mxCell id="T9ikuVE41OPB9cJx2uWR-61" value="Make Reservation" style="ellipse;whiteSpace=wrap;html=1;fontSize=15;" parent="1" vertex="1">
          <mxGeometry x="-1061" y="-138" width="120" height="80" as="geometry" />
        </mxCell>
        <mxCell id="eNlCT5Ur5EYZ7H-Dd0QA-24" style="rounded=0;orthogonalLoop=1;jettySize=auto;html=1;endArrow=classic;startFill=0;dashed=1;endFill=1;exitX=0.5;exitY=0;exitDx=0;exitDy=0;entryX=0.5;entryY=1;entryDx=0;entryDy=0;fontSize=15;" edge="1" parent="1" source="T9ikuVE41OPB9cJx2uWR-62" target="T9ikuVE41OPB9cJx2uWR-72">
          <mxGeometry relative="1" as="geometry">
            <mxPoint x="-957" y="241.00000000000023" as="sourcePoint" />
            <mxPoint x="-919.416406871193" y="116.00427124746216" as="targetPoint" />
          </mxGeometry>
        </mxCell>
        <mxCell id="T9ikuVE41OPB9cJx2uWR-62" value="Give Feedback" style="ellipse;whiteSpace=wrap;html=1;fontSize=15;" parent="1" vertex="1">
          <mxGeometry x="-1061" y="385" width="120" height="80" as="geometry" />
        </mxCell>
        <mxCell id="T9ikuVE41OPB9cJx2uWR-63" value="&amp;nbsp;Process Payments" style="ellipse;whiteSpace=wrap;html=1;fontSize=15;" parent="1" vertex="1">
          <mxGeometry x="-1061" y="125" width="120" height="80" as="geometry" />
        </mxCell>
        <mxCell id="T9ikuVE41OPB9cJx2uWR-64" value="Manage Orders" style="ellipse;whiteSpace=wrap;html=1;fontSize=15;" parent="1" vertex="1">
          <mxGeometry x="-709" y="-61" width="120" height="80" as="geometry" />
        </mxCell>
        <mxCell id="T9ikuVE41OPB9cJx2uWR-70" value="Rating/review" style="ellipse;whiteSpace=wrap;html=1;fontSize=15;" parent="1" vertex="1">
          <mxGeometry x="-709" y="-465" width="120" height="80" as="geometry" />
        </mxCell>
        <mxCell id="T9ikuVE41OPB9cJx2uWR-72" value="Attachments&amp;nbsp;" style="ellipse;whiteSpace=wrap;html=1;fontSize=15;" parent="1" vertex="1">
          <mxGeometry x="-1061" y="249" width="120" height="80" as="geometry" />
        </mxCell>
        <mxCell id="T9ikuVE41OPB9cJx2uWR-76" value="Manage Users" style="ellipse;whiteSpace=wrap;html=1;fontSize=15;" parent="1" vertex="1">
          <mxGeometry x="-709" y="-283" width="120" height="80" as="geometry" />
        </mxCell>
        <mxCell id="T9ikuVE41OPB9cJx2uWR-84" style="edgeStyle=none;curved=1;rounded=0;orthogonalLoop=1;jettySize=auto;html=1;fontSize=15;startSize=8;endSize=8;endArrow=none;startFill=0;" parent="1" source="T9ikuVE41OPB9cJx2uWR-78" target="T9ikuVE41OPB9cJx2uWR-60" edge="1">
          <mxGeometry relative="1" as="geometry" />
        </mxCell>
        <mxCell id="eNlCT5Ur5EYZ7H-Dd0QA-17" value="interact&amp;nbsp;" style="edgeLabel;html=1;align=center;verticalAlign=middle;resizable=0;points=[];fontSize=15;" vertex="1" connectable="0" parent="T9ikuVE41OPB9cJx2uWR-84">
          <mxGeometry x="0.184" relative="1" as="geometry">
            <mxPoint x="1" as="offset" />
          </mxGeometry>
        </mxCell>
        <mxCell id="T9ikuVE41OPB9cJx2uWR-85" style="edgeStyle=none;curved=1;rounded=0;orthogonalLoop=1;jettySize=auto;html=1;fontSize=15;startSize=8;endSize=8;endArrow=none;startFill=0;" parent="1" source="T9ikuVE41OPB9cJx2uWR-78" target="T9ikuVE41OPB9cJx2uWR-61" edge="1">
          <mxGeometry relative="1" as="geometry" />
        </mxCell>
        <mxCell id="eNlCT5Ur5EYZ7H-Dd0QA-18" value="book" style="edgeLabel;html=1;align=center;verticalAlign=middle;resizable=0;points=[];fontSize=15;" vertex="1" connectable="0" parent="T9ikuVE41OPB9cJx2uWR-85">
          <mxGeometry x="0.1951" y="7" relative="1" as="geometry">
            <mxPoint as="offset" />
          </mxGeometry>
        </mxCell>
        <mxCell id="T9ikuVE41OPB9cJx2uWR-91" style="edgeStyle=none;curved=1;rounded=0;orthogonalLoop=1;jettySize=auto;html=1;entryX=0;entryY=0.5;entryDx=0;entryDy=0;fontSize=15;startSize=8;endSize=8;endArrow=none;startFill=0;" parent="1" source="T9ikuVE41OPB9cJx2uWR-78" target="T9ikuVE41OPB9cJx2uWR-63" edge="1">
          <mxGeometry relative="1" as="geometry" />
        </mxCell>
        <mxCell id="eNlCT5Ur5EYZ7H-Dd0QA-47" value="pay" style="edgeLabel;html=1;align=center;verticalAlign=middle;resizable=0;points=[];fontSize=15;" vertex="1" connectable="0" parent="T9ikuVE41OPB9cJx2uWR-91">
          <mxGeometry x="0.0362" y="-2" relative="1" as="geometry">
            <mxPoint as="offset" />
          </mxGeometry>
        </mxCell>
        <mxCell id="eNlCT5Ur5EYZ7H-Dd0QA-10" style="rounded=0;orthogonalLoop=1;jettySize=auto;html=1;entryX=0;entryY=0.5;entryDx=0;entryDy=0;endArrow=none;startFill=0;fontSize=15;" edge="1" parent="1" source="T9ikuVE41OPB9cJx2uWR-78" target="T9ikuVE41OPB9cJx2uWR-62">
          <mxGeometry relative="1" as="geometry" />
        </mxCell>
        <mxCell id="eNlCT5Ur5EYZ7H-Dd0QA-19" value="submit" style="edgeLabel;html=1;align=center;verticalAlign=middle;resizable=0;points=[];fontSize=15;" vertex="1" connectable="0" parent="eNlCT5Ur5EYZ7H-Dd0QA-10">
          <mxGeometry x="0.1207" y="3" relative="1" as="geometry">
            <mxPoint as="offset" />
          </mxGeometry>
        </mxCell>
        <mxCell id="eNlCT5Ur5EYZ7H-Dd0QA-30" style="rounded=0;orthogonalLoop=1;jettySize=auto;html=1;entryX=0;entryY=0.5;entryDx=0;entryDy=0;endArrow=none;startFill=0;fontSize=15;" edge="1" parent="1" source="T9ikuVE41OPB9cJx2uWR-78" target="eNlCT5Ur5EYZ7H-Dd0QA-29">
          <mxGeometry relative="1" as="geometry" />
        </mxCell>
        <mxCell id="eNlCT5Ur5EYZ7H-Dd0QA-46" value="alter" style="edgeLabel;html=1;align=center;verticalAlign=middle;resizable=0;points=[];fontSize=15;" vertex="1" connectable="0" parent="eNlCT5Ur5EYZ7H-Dd0QA-30">
          <mxGeometry x="0.1689" y="7" relative="1" as="geometry">
            <mxPoint x="-1" as="offset" />
          </mxGeometry>
        </mxCell>
        <mxCell id="T9ikuVE41OPB9cJx2uWR-78" value="Customer" style="shape=umlActor;verticalLabelPosition=bottom;verticalAlign=top;html=1;outlineConnect=0;fontSize=15;" parent="1" vertex="1">
          <mxGeometry x="-1422" y="-41" width="30" height="60" as="geometry" />
        </mxCell>
        <mxCell id="T9ikuVE41OPB9cJx2uWR-89" style="edgeStyle=none;curved=1;rounded=0;orthogonalLoop=1;jettySize=auto;html=1;entryX=0.5;entryY=0;entryDx=0;entryDy=0;fontSize=15;startSize=8;endSize=8;endArrow=none;startFill=0;" parent="1" source="T9ikuVE41OPB9cJx2uWR-79" target="T9ikuVE41OPB9cJx2uWR-64" edge="1">
          <mxGeometry relative="1" as="geometry" />
        </mxCell>
        <mxCell id="eNlCT5Ur5EYZ7H-Dd0QA-57" value="oversee" style="edgeLabel;html=1;align=center;verticalAlign=middle;resizable=0;points=[];fontSize=15;" vertex="1" connectable="0" parent="T9ikuVE41OPB9cJx2uWR-89">
          <mxGeometry x="-0.1387" relative="1" as="geometry">
            <mxPoint as="offset" />
          </mxGeometry>
        </mxCell>
        <mxCell id="eNlCT5Ur5EYZ7H-Dd0QA-11" style="rounded=0;orthogonalLoop=1;jettySize=auto;html=1;entryX=1;entryY=0;entryDx=0;entryDy=0;endArrow=none;startFill=0;fontSize=15;" edge="1" parent="1" source="T9ikuVE41OPB9cJx2uWR-79" target="T9ikuVE41OPB9cJx2uWR-63">
          <mxGeometry relative="1" as="geometry" />
        </mxCell>
        <mxCell id="eNlCT5Ur5EYZ7H-Dd0QA-21" value="process" style="edgeLabel;html=1;align=center;verticalAlign=middle;resizable=0;points=[];fontSize=15;" vertex="1" connectable="0" parent="eNlCT5Ur5EYZ7H-Dd0QA-11">
          <mxGeometry x="0.0964" y="-3" relative="1" as="geometry">
            <mxPoint x="1" as="offset" />
          </mxGeometry>
        </mxCell>
        <mxCell id="eNlCT5Ur5EYZ7H-Dd0QA-12" style="rounded=0;orthogonalLoop=1;jettySize=auto;html=1;endArrow=none;startFill=0;fontSize=15;" edge="1" parent="1" source="T9ikuVE41OPB9cJx2uWR-79" target="T9ikuVE41OPB9cJx2uWR-58">
          <mxGeometry relative="1" as="geometry" />
        </mxCell>
        <mxCell id="eNlCT5Ur5EYZ7H-Dd0QA-14" style="rounded=0;orthogonalLoop=1;jettySize=auto;html=1;entryX=1;entryY=0;entryDx=0;entryDy=0;endArrow=none;startFill=0;fontSize=15;" edge="1" parent="1" source="T9ikuVE41OPB9cJx2uWR-79" target="T9ikuVE41OPB9cJx2uWR-60">
          <mxGeometry relative="1" as="geometry" />
        </mxCell>
        <mxCell id="eNlCT5Ur5EYZ7H-Dd0QA-38" style="rounded=0;orthogonalLoop=1;jettySize=auto;html=1;entryX=1;entryY=0.5;entryDx=0;entryDy=0;endArrow=none;startFill=0;fontSize=15;" edge="1" parent="1" source="T9ikuVE41OPB9cJx2uWR-79" target="eNlCT5Ur5EYZ7H-Dd0QA-37">
          <mxGeometry relative="1" as="geometry" />
        </mxCell>
        <mxCell id="eNlCT5Ur5EYZ7H-Dd0QA-39" value="view" style="edgeLabel;html=1;align=center;verticalAlign=middle;resizable=0;points=[];fontSize=15;" vertex="1" connectable="0" parent="eNlCT5Ur5EYZ7H-Dd0QA-38">
          <mxGeometry x="-0.5597" y="-2" relative="1" as="geometry">
            <mxPoint y="1" as="offset" />
          </mxGeometry>
        </mxCell>
        <mxCell id="eNlCT5Ur5EYZ7H-Dd0QA-40" style="rounded=0;orthogonalLoop=1;jettySize=auto;html=1;entryX=1;entryY=0;entryDx=0;entryDy=0;endArrow=none;startFill=0;fontSize=15;" edge="1" parent="1" source="T9ikuVE41OPB9cJx2uWR-79" target="eNlCT5Ur5EYZ7H-Dd0QA-4">
          <mxGeometry relative="1" as="geometry" />
        </mxCell>
        <mxCell id="eNlCT5Ur5EYZ7H-Dd0QA-56" value="analyze&amp;nbsp;" style="edgeLabel;html=1;align=center;verticalAlign=middle;resizable=0;points=[];fontSize=15;" vertex="1" connectable="0" parent="eNlCT5Ur5EYZ7H-Dd0QA-40">
          <mxGeometry x="-0.7026" y="-8" relative="1" as="geometry">
            <mxPoint as="offset" />
          </mxGeometry>
        </mxCell>
        <mxCell id="eNlCT5Ur5EYZ7H-Dd0QA-44" style="rounded=0;orthogonalLoop=1;jettySize=auto;html=1;entryX=1;entryY=0;entryDx=0;entryDy=0;endArrow=none;startFill=0;fontSize=15;" edge="1" parent="1" source="T9ikuVE41OPB9cJx2uWR-79" target="T9ikuVE41OPB9cJx2uWR-76">
          <mxGeometry relative="1" as="geometry" />
        </mxCell>
        <mxCell id="eNlCT5Ur5EYZ7H-Dd0QA-45" value="manage" style="edgeLabel;html=1;align=center;verticalAlign=middle;resizable=0;points=[];fontSize=15;" vertex="1" connectable="0" parent="eNlCT5Ur5EYZ7H-Dd0QA-44">
          <mxGeometry x="0.2063" y="1" relative="1" as="geometry">
            <mxPoint x="-1" as="offset" />
          </mxGeometry>
        </mxCell>
        <mxCell id="eNlCT5Ur5EYZ7H-Dd0QA-60" style="rounded=0;orthogonalLoop=1;jettySize=auto;html=1;entryX=1;entryY=0.5;entryDx=0;entryDy=0;endArrow=none;startFill=0;fontSize=15;" edge="1" parent="1" source="T9ikuVE41OPB9cJx2uWR-79" target="eNlCT5Ur5EYZ7H-Dd0QA-3">
          <mxGeometry relative="1" as="geometry" />
        </mxCell>
        <mxCell id="eNlCT5Ur5EYZ7H-Dd0QA-61" value="handle" style="edgeLabel;html=1;align=center;verticalAlign=middle;resizable=0;points=[];fontSize=15;" vertex="1" connectable="0" parent="eNlCT5Ur5EYZ7H-Dd0QA-60">
          <mxGeometry x="0.809" y="1" relative="1" as="geometry">
            <mxPoint as="offset" />
          </mxGeometry>
        </mxCell>
        <mxCell id="T9ikuVE41OPB9cJx2uWR-79" value="Admin" style="shape=umlActor;verticalLabelPosition=bottom;verticalAlign=top;html=1;outlineConnect=0;fontSize=15;" parent="1" vertex="1">
          <mxGeometry x="-281" y="-435" width="30" height="60" as="geometry" />
        </mxCell>
        <mxCell id="T9ikuVE41OPB9cJx2uWR-88" style="edgeStyle=none;curved=1;rounded=0;orthogonalLoop=1;jettySize=auto;html=1;fontSize=15;startSize=8;endSize=8;endArrow=none;startFill=0;entryX=0.983;entryY=0.425;entryDx=0;entryDy=0;entryPerimeter=0;" parent="1" source="T9ikuVE41OPB9cJx2uWR-80" target="T9ikuVE41OPB9cJx2uWR-64" edge="1">
          <mxGeometry relative="1" as="geometry">
            <mxPoint x="-628" y="427" as="targetPoint" />
          </mxGeometry>
        </mxCell>
        <mxCell id="eNlCT5Ur5EYZ7H-Dd0QA-20" value="serve" style="edgeLabel;html=1;align=center;verticalAlign=middle;resizable=0;points=[];fontSize=15;" vertex="1" connectable="0" parent="T9ikuVE41OPB9cJx2uWR-88">
          <mxGeometry x="0.2044" y="5" relative="1" as="geometry">
            <mxPoint as="offset" />
          </mxGeometry>
        </mxCell>
        <mxCell id="eNlCT5Ur5EYZ7H-Dd0QA-8" style="rounded=0;orthogonalLoop=1;jettySize=auto;html=1;entryX=1;entryY=0.5;entryDx=0;entryDy=0;endArrow=none;startFill=0;fontSize=15;" edge="1" parent="1" source="T9ikuVE41OPB9cJx2uWR-80" target="T9ikuVE41OPB9cJx2uWR-63">
          <mxGeometry relative="1" as="geometry" />
        </mxCell>
        <mxCell id="eNlCT5Ur5EYZ7H-Dd0QA-65" value="assist&amp;nbsp;" style="edgeLabel;html=1;align=center;verticalAlign=middle;resizable=0;points=[];fontSize=15;" vertex="1" connectable="0" parent="eNlCT5Ur5EYZ7H-Dd0QA-8">
          <mxGeometry x="0.4778" y="2" relative="1" as="geometry">
            <mxPoint x="1" as="offset" />
          </mxGeometry>
        </mxCell>
        <mxCell id="eNlCT5Ur5EYZ7H-Dd0QA-13" style="rounded=0;orthogonalLoop=1;jettySize=auto;html=1;entryX=1;entryY=0.5;entryDx=0;entryDy=0;endArrow=none;startFill=0;fontSize=15;" edge="1" parent="1" source="T9ikuVE41OPB9cJx2uWR-80" target="T9ikuVE41OPB9cJx2uWR-76">
          <mxGeometry relative="1" as="geometry" />
        </mxCell>
        <mxCell id="eNlCT5Ur5EYZ7H-Dd0QA-43" value="manage&amp;nbsp;" style="edgeLabel;html=1;align=center;verticalAlign=middle;resizable=0;points=[];fontSize=15;" vertex="1" connectable="0" parent="eNlCT5Ur5EYZ7H-Dd0QA-13">
          <mxGeometry x="0.1851" y="1" relative="1" as="geometry">
            <mxPoint x="1" y="1" as="offset" />
          </mxGeometry>
        </mxCell>
        <mxCell id="eNlCT5Ur5EYZ7H-Dd0QA-15" style="rounded=0;orthogonalLoop=1;jettySize=auto;html=1;entryX=1;entryY=1;entryDx=0;entryDy=0;endArrow=none;startFill=0;fontSize=15;" edge="1" parent="1" source="T9ikuVE41OPB9cJx2uWR-80" target="T9ikuVE41OPB9cJx2uWR-60">
          <mxGeometry relative="1" as="geometry" />
        </mxCell>
        <mxCell id="eNlCT5Ur5EYZ7H-Dd0QA-35" style="rounded=0;orthogonalLoop=1;jettySize=auto;html=1;entryX=1;entryY=0.5;entryDx=0;entryDy=0;startArrow=none;startFill=0;endArrow=none;fontSize=15;" edge="1" parent="1" source="T9ikuVE41OPB9cJx2uWR-80" target="eNlCT5Ur5EYZ7H-Dd0QA-4">
          <mxGeometry relative="1" as="geometry" />
        </mxCell>
        <mxCell id="eNlCT5Ur5EYZ7H-Dd0QA-42" value="create&amp;nbsp;" style="edgeLabel;html=1;align=center;verticalAlign=middle;resizable=0;points=[];fontSize=15;" vertex="1" connectable="0" parent="eNlCT5Ur5EYZ7H-Dd0QA-35">
          <mxGeometry x="-0.3385" y="4" relative="1" as="geometry">
            <mxPoint as="offset" />
          </mxGeometry>
        </mxCell>
        <mxCell id="eNlCT5Ur5EYZ7H-Dd0QA-50" style="rounded=0;orthogonalLoop=1;jettySize=auto;html=1;entryX=1;entryY=0.5;entryDx=0;entryDy=0;fontSize=15;" edge="1" parent="1" source="T9ikuVE41OPB9cJx2uWR-80" target="T9ikuVE41OPB9cJx2uWR-61">
          <mxGeometry relative="1" as="geometry" />
        </mxCell>
        <mxCell id="T9ikuVE41OPB9cJx2uWR-80" value="Manager" style="shape=umlActor;verticalLabelPosition=bottom;verticalAlign=top;html=1;outlineConnect=0;fontSize=15;" parent="1" vertex="1">
          <mxGeometry x="-281" y="-128" width="30" height="60" as="geometry" />
        </mxCell>
        <mxCell id="T9ikuVE41OPB9cJx2uWR-83" style="edgeStyle=none;curved=1;rounded=0;orthogonalLoop=1;jettySize=auto;html=1;entryX=0;entryY=0.5;entryDx=0;entryDy=0;fontSize=15;startSize=8;endSize=8;endArrow=none;startFill=0;" parent="1" source="T9ikuVE41OPB9cJx2uWR-78" target="T9ikuVE41OPB9cJx2uWR-59" edge="1">
          <mxGeometry relative="1" as="geometry" />
        </mxCell>
        <mxCell id="eNlCT5Ur5EYZ7H-Dd0QA-16" value="Access&amp;nbsp;" style="edgeLabel;html=1;align=center;verticalAlign=middle;resizable=0;points=[];fontSize=15;" vertex="1" connectable="0" parent="T9ikuVE41OPB9cJx2uWR-83">
          <mxGeometry x="0.1664" y="7" relative="1" as="geometry">
            <mxPoint y="1" as="offset" />
          </mxGeometry>
        </mxCell>
        <mxCell id="eNlCT5Ur5EYZ7H-Dd0QA-3" value="Manage Inventory" style="ellipse;whiteSpace=wrap;html=1;fontSize=15;" vertex="1" parent="1">
          <mxGeometry x="-709" y="262" width="120" height="80" as="geometry" />
        </mxCell>
        <mxCell id="eNlCT5Ur5EYZ7H-Dd0QA-4" value="Generate Reports" style="ellipse;whiteSpace=wrap;html=1;fontSize=15;" vertex="1" parent="1">
          <mxGeometry x="-709" y="136" width="120" height="80" as="geometry" />
        </mxCell>
        <mxCell id="eNlCT5Ur5EYZ7H-Dd0QA-29" value="Update order" style="ellipse;whiteSpace=wrap;html=1;fontSize=15;" vertex="1" parent="1">
          <mxGeometry x="-1064" y="-9" width="120" height="80" as="geometry" />
        </mxCell>
        <mxCell id="eNlCT5Ur5EYZ7H-Dd0QA-48" style="rounded=0;orthogonalLoop=1;jettySize=auto;html=1;entryX=1;entryY=0.5;entryDx=0;entryDy=0;endArrow=none;startFill=0;fontSize=15;" edge="1" parent="1" source="eNlCT5Ur5EYZ7H-Dd0QA-31" target="eNlCT5Ur5EYZ7H-Dd0QA-29">
          <mxGeometry relative="1" as="geometry" />
        </mxCell>
        <mxCell id="eNlCT5Ur5EYZ7H-Dd0QA-49" value="assist" style="edgeLabel;html=1;align=center;verticalAlign=middle;resizable=0;points=[];fontSize=15;" vertex="1" connectable="0" parent="eNlCT5Ur5EYZ7H-Dd0QA-48">
          <mxGeometry x="0.5558" y="-3" relative="1" as="geometry">
            <mxPoint x="1" as="offset" />
          </mxGeometry>
        </mxCell>
        <mxCell id="eNlCT5Ur5EYZ7H-Dd0QA-31" value="&lt;span style=&quot;text-wrap-mode: wrap;&quot;&gt;&amp;nbsp;Waiter&lt;/span&gt;&lt;div&gt;&lt;span style=&quot;text-wrap-mode: wrap;&quot;&gt;&lt;br&gt;&lt;/span&gt;&lt;/div&gt;" style="shape=umlActor;verticalLabelPosition=bottom;verticalAlign=top;html=1;outlineConnect=0;fontSize=15;" vertex="1" parent="1">
          <mxGeometry x="-281" y="117" width="30" height="60" as="geometry" />
        </mxCell>
        <mxCell id="eNlCT5Ur5EYZ7H-Dd0QA-37" value="View Feedbacks" style="ellipse;whiteSpace=wrap;html=1;fontSize=15;" vertex="1" parent="1">
          <mxGeometry x="-709" y="399" width="120" height="80" as="geometry" />
        </mxCell>
        <mxCell id="eNlCT5Ur5EYZ7H-Dd0QA-58" style="rounded=0;orthogonalLoop=1;jettySize=auto;html=1;entryX=1;entryY=0.5;entryDx=0;entryDy=0;endArrow=none;startFill=0;fontSize=15;" edge="1" parent="1" source="eNlCT5Ur5EYZ7H-Dd0QA-51" target="eNlCT5Ur5EYZ7H-Dd0QA-3">
          <mxGeometry relative="1" as="geometry" />
        </mxCell>
        <mxCell id="eNlCT5Ur5EYZ7H-Dd0QA-59" value="update" style="edgeLabel;html=1;align=center;verticalAlign=middle;resizable=0;points=[];fontSize=15;" vertex="1" connectable="0" parent="eNlCT5Ur5EYZ7H-Dd0QA-58">
          <mxGeometry x="0.2133" y="-1" relative="1" as="geometry">
            <mxPoint x="-1" as="offset" />
          </mxGeometry>
        </mxCell>
        <mxCell id="eNlCT5Ur5EYZ7H-Dd0QA-62" style="rounded=0;orthogonalLoop=1;jettySize=auto;html=1;entryX=0.5;entryY=1;entryDx=0;entryDy=0;endArrow=none;startFill=0;fontSize=15;" edge="1" parent="1" source="eNlCT5Ur5EYZ7H-Dd0QA-51" target="T9ikuVE41OPB9cJx2uWR-64">
          <mxGeometry relative="1" as="geometry" />
        </mxCell>
        <mxCell id="eNlCT5Ur5EYZ7H-Dd0QA-64" value="prepare&amp;nbsp;" style="edgeLabel;html=1;align=center;verticalAlign=middle;resizable=0;points=[];fontSize=15;" vertex="1" connectable="0" parent="eNlCT5Ur5EYZ7H-Dd0QA-62">
          <mxGeometry x="-0.093" y="-1" relative="1" as="geometry">
            <mxPoint x="-1" as="offset" />
          </mxGeometry>
        </mxCell>
        <mxCell id="eNlCT5Ur5EYZ7H-Dd0QA-51" value="chef/kitchen staff" style="shape=umlActor;verticalLabelPosition=bottom;verticalAlign=top;html=1;outlineConnect=0;fontSize=15;" vertex="1" parent="1">
          <mxGeometry x="-281" y="381" width="30" height="60" as="geometry" />
        </mxCell>
        <mxCell id="eNlCT5Ur5EYZ7H-Dd0QA-72" value="&amp;lt;&amp;lt;include&amp;gt;&amp;gt;" style="text;html=1;align=center;verticalAlign=middle;whiteSpace=wrap;rounded=0;" vertex="1" parent="1">
          <mxGeometry x="-883" y="-415" width="60" height="30" as="geometry" />
        </mxCell>
        <mxCell id="eNlCT5Ur5EYZ7H-Dd0QA-73" value="&amp;lt;&amp;lt;include&amp;gt;&amp;gt;" style="text;html=1;align=center;verticalAlign=middle;whiteSpace=wrap;rounded=0;" vertex="1" parent="1">
          <mxGeometry x="-985" y="348" width="60" height="30" as="geometry" />
        </mxCell>
      </root>
    </mxGraphModel>
  </diagram>
</mxfile>
